<svg xmlns="http://www.w3.org/2000/svg" viewBox="0 0 1127 1121" preserveAspectRatio="xMidYMid meet">
  <g transform="translate(0.000000,1121.000000) scale(0.100000,-0.100000)" fill="#ffffff" stroke="none">
    <path d="M8665 11201 c-99 -25 -173 -108 -274 -308 -135 -270 -152 -408 -60
-508 40 -44 105 -78 172 -90 20 -4 37 -13 37 -19 0 -18 -115 -197 -201 -313
-374 -506 -929 -1083 -1514 -1574 -574 -482 -1317 -975 -1930 -1281 -383 -192
-802 -357 -1081 -427 -270 -68 -584 -85 -779 -43 -211 45 -361 154 -444 322
-73 150 -76 285 -11 559 34 142 35 152 15 190 -20 39 -41 45 -79 22 -59 -37
-120 -163 -190 -393 -119 -393 -120 -718 -2 -990 49 -113 91 -179 169 -264 78
-84 200 -169 302 -209 241 -95 572 -102 965 -20 214 44 641 209 990 381 474
234 889 494 1429 898 407 304 658 521 1060 920 328 325 572 594 731 806 35 47
83 108 106 135 155 186 430 584 581 840 163 277 296 579 344 784 17 67 20 109
17 191 -5 127 -29 200 -91 279 -65 85 -179 133 -262 112z"/>
    <path d="M10113 9936 c-35 -29 -75 -103 -198 -361 -237 -497 -449 -848 -814
-1350 -340 -467 -611 -774 -1167 -1325 -549 -543 -1101 -999 -1794 -1482 -529
-369 -1108 -701 -1630 -936 -245 -110 -292 -130 -479 -202 -492 -189 -868
-273 -1236 -274 -182 -1 -260 9 -401 49 -327 93 -517 301 -569 620 -26 159
-17 291 35 504 36 148 39 227 9 265 -36 46 -93 28 -138 -43 -75 -118 -149
-326 -205 -577 -54 -240 -66 -338 -66 -530 0 -311 68 -573 203 -782 56 -86
170 -208 257 -274 129 -98 352 -189 550 -224 156 -28 437 -26 630 5 332 51
817 199 1180 359 412 181 896 440 1280 685 816 521 1478 1055 2196 1772 380
379 559 572 810 875 422 508 742 963 1056 1500 269 461 511 1011 593 1350 39
158 42 319 7 368 -29 40 -68 43 -109 8z"/>
    <path d="M11119 8486 c-30 -21 -99 -110 -99 -128 0 -17 -242 -534 -370 -793
-150 -302 -191 -377 -393 -715 -391 -656 -934 -1377 -1504 -1997 -173 -189
-626 -639 -868 -863 -590 -545 -1264 -1073 -1879 -1472 -700 -454 -1387 -802
-1981 -1004 -337 -115 -563 -176 -881 -238 -418 -81 -859 -87 -1207 -15 -154
31 -363 99 -493 159 -305 141 -590 397 -759 684 -161 273 -254 711 -225 1057
26 321 106 679 225 1015 122 342 141 438 100 484 -24 27 -75 26 -104 -1 -102
-95 -344 -624 -465 -1015 -137 -443 -231 -1071 -211 -1404 17 -288 76 -603
151 -812 43 -119 179 -381 253 -491 137 -200 338 -396 547 -534 304 -199 655
-323 1064 -375 139 -17 628 -17 775 0 148 18 433 66 575 98 147 33 566 161
735 224 452 169 1012 439 1435 693 490 292 902 581 1450 1016 393 312 942 824
1360 1266 470 499 984 1125 1310 1595 51 74 119 171 150 215 52 74 154 229
327 500 168 263 309 516 492 881 323 646 546 1242 621 1662 19 109 16 232 -8
279 -31 60 -65 68 -123 29z"/>
  </g>
</svg>
