<svg xmlns="http://www.w3.org/2000/svg" viewBox="0 0 36 36">
  <path fill="#F7DECE" d="M4.861 9.147c.94-.657 2.357-.531 3.201.166l-.968-1.407c-.779-1.111-.378-2.632.866-3.202 1.069-.49 2.387-.1 2.96.893l.024.041 2.001 2.911a7.15 7.15 0 0 1-.085-.127L10.859 5.4c-.83-1.208-.376-2.896.983-3.478 1.152-.494 2.508-.052 3.082 1.003l4.195 6.026-.036-.054-.006-.009c-.786-1.156-.375-2.729.867-3.315 1.063-.502 2.376-.104 2.96.878l1.486 2.139c.075.094.148.19.22.29l.001.002.01.015.007.01a10.18 10.18 0 0 1 .075.107c.071.104.15.223.232.355l.021.033a14.486 14.486 0 0 1 .394.672c.09.166.172.327.239.469l.018.037c.13.277.233.5.303.641.07.14.137.268.2.392l.015.027a8.283 8.283 0 0 1 .83 2.594 11.68 11.68 0 0 1 .088.961l.002.069c.002.084.002.161 0 .234a14.07 14.07 0 0 1-.024.593c-.149 2.016-.675 3.152-1.347 4.013-.672.86-1.434 1.419-1.934 1.76l-.025.018c-.014.009-.03.019-.044.03-.741.504-1.344.703-1.542.753L10.186 30.513c-2.963.673-5.464-1.09-6.152-2.005L1.89 25.782c-.839-1.033-.586-2.66.507-3.382.564-.372 1.236-.449 1.827-.27L2.32 19.698c-1.165-1.485-.737-3.616.923-4.47a3.277 3.277 0 0 1 1.652-.39c-.284-.134-.543-.32-.763-.553a2.403 2.403 0 0 1-.531-2.065 2.39 2.39 0 0 1 1.26-1.673l.001-.001z"/>
  <path fill="#ECC4B2" d="M4.861 9.147c.94-.657 2.357-.531 3.201.166l-.968-1.407c-.779-1.111-.378-2.632.866-3.202 1.069-.49 2.387-.1 2.96.893l.024.041 2.001 2.911a7.15 7.15 0 0 1-.085-.127L10.859 5.4c-.83-1.208-.376-2.896.983-3.478 1.152-.494 2.508-.052 3.082 1.003l4.195 6.026-.036-.054-.006-.009c-.786-1.156-.375-2.729.867-3.315 1.063-.502 2.376-.104 2.96.878l1.486 2.139"/>
  <path fill="#F7DECE" d="M19.08 8.438c.075.094.148.19.22.29l.001.002.01.015.007.01a10.18 10.18 0 0 1 .075.107"/>
  <g fill="none" stroke="#DBA68D" stroke-linecap="round" stroke-width=".75">
    <path d="M8.062 9.313c-.327-.471-.992-1.479-2.155-1.567"/>
    <path d="M11.828 5.86c.024-.587-.097-1.726-1.167-2.358"/>
    <path d="M18.86 8.088c.376-.376 1.165-1.337.698-2.57"/>
  </g>
</svg>
